<svg width="15" height="17" viewBox="0 0 15 17" fill="none" xmlns="http://www.w3.org/2000/svg">
<path fill-rule="evenodd" clip-rule="evenodd" d="M6.22075 0.352543C7.01235 -0.117514 7.98765 -0.117514 8.77925 0.352543L13.7208 3.28683C14.5124 3.75689 15 4.62559 15 5.56571V11.4343C15 12.3744 14.5124 13.2431 13.7208 13.7132L8.77925 16.6475C7.98765 17.1175 7.01235 17.1175 6.22075 16.6475L1.27925 13.7132C0.487646 13.2431 0 12.3744 0 11.4343V5.56571C0 4.62559 0.487647 3.75689 1.27925 3.28683L6.22075 0.352543ZM7.92642 1.87179C7.66255 1.71511 7.33745 1.71511 7.07358 1.87179L2.13208 4.80608C1.86821 4.96277 1.70566 5.25234 1.70566 5.56571V11.4343C1.70566 11.7477 1.86821 12.0372 2.13208 12.1939L7.07358 15.1282C7.33745 15.2849 7.66255 15.2849 7.92642 15.1282L12.8679 12.1939C13.1318 12.0372 13.2943 11.7477 13.2943 11.4343V5.56571C13.2943 5.25234 13.1318 4.96277 12.8679 4.80608L7.92642 1.87179ZM7.5 6.74572C6.55799 6.74572 5.79434 7.53114 5.79434 8.5C5.79434 9.46886 6.55799 10.2543 7.5 10.2543C8.44201 10.2543 9.20566 9.46886 9.20566 8.5C9.20566 7.53114 8.44201 6.74572 7.5 6.74572ZM4.08867 8.5C4.08867 6.56228 5.61598 4.99144 7.5 4.99144C9.38403 4.99144 10.9113 6.56228 10.9113 8.5C10.9113 10.4377 9.38403 12.0086 7.5 12.0086C5.61598 12.0086 4.08867 10.4377 4.08867 8.5Z" fill="black"/>
</svg>
