<svg width="18" height="16" viewBox="0 0 18 16" fill="none" xmlns="http://www.w3.org/2000/svg">
<path d="M16.0093 1.46002C15.5503 0.996014 15.0036 0.627969 14.401 0.377314C13.7984 0.126658 13.1519 -0.00159768 12.4993 1.50216e-05C11.8466 -0.00159768 11.2002 0.126658 10.5976 0.377314C9.99498 0.627969 9.44826 0.996014 8.98929 1.46002L8.70929 1.75002L8.42929 1.47001C7.501 0.541819 6.24202 0.0203722 4.92929 0.0203722C3.61655 0.0203722 2.35758 0.541819 1.42929 1.47001C0.513151 2.40466 0 3.66125 0 4.97002C0 6.27878 0.513151 7.53537 1.42929 8.47002L8.19929 15.26C8.33991 15.4005 8.53054 15.4794 8.72929 15.4794C8.92804 15.4794 9.11866 15.4005 9.25929 15.26L16.0293 8.47002C16.9458 7.53231 17.4572 6.27211 17.4535 4.96092C17.4497 3.64973 16.9311 2.39248 16.0093 1.46002Z" fill="black"/>
</svg>
