<svg width="18" height="16" viewBox="0 0 18 16" fill="none" xmlns="http://www.w3.org/2000/svg">
<path d="M8.72929 15.49C8.53044 15.4899 8.3398 15.4107 8.19929 15.2701L1.42929 8.48005C0.513151 7.5454 0 6.28881 0 4.98005C0 3.67129 0.513151 2.41469 1.42929 1.48005C2.35758 0.551853 3.61655 0.0304063 4.92929 0.0304063C6.24202 0.0304063 7.50099 0.551853 8.42929 1.48005L8.72929 1.74005L9.00928 1.46005C9.46826 0.996048 10.015 0.628003 10.6176 0.377348C11.2202 0.126692 11.8666 -0.00156332 12.5193 4.93851e-05C13.1712 -0.00287159 13.8173 0.12381 14.4198 0.372733C15.0224 0.621656 15.5695 0.987855 16.0293 1.45005C16.9454 2.38469 17.4586 3.64129 17.4586 4.95005C17.4586 6.25881 16.9454 7.51541 16.0293 8.45005L9.25928 15.24C9.19224 15.3152 9.11077 15.376 9.01971 15.419C8.92866 15.4619 8.82989 15.4861 8.72929 15.49ZM4.93929 1.49005C4.48512 1.48674 4.03479 1.57341 3.61428 1.74504C3.19378 1.91668 2.81143 2.16988 2.48929 2.49005C1.84016 3.1422 1.47574 4.0249 1.47574 4.94505C1.47574 5.8652 1.84016 6.74789 2.48929 7.40005L8.72929 13.68L14.9593 7.42005C15.2819 7.09778 15.5378 6.71508 15.7125 6.29384C15.8871 5.87259 15.977 5.42106 15.977 4.96505C15.977 4.50904 15.8871 4.05751 15.7125 3.63626C15.5378 3.21502 15.2819 2.83232 14.9593 2.51005C14.6397 2.18928 14.2592 1.93559 13.8402 1.76387C13.4212 1.59214 12.9721 1.50585 12.5193 1.51005C12.0651 1.50674 11.6148 1.59341 11.1943 1.76504C10.7738 1.93668 10.3914 2.18988 10.0693 2.51005L9.25928 3.32005C9.11622 3.4558 8.92651 3.53148 8.72929 3.53148C8.53206 3.53148 8.34235 3.4558 8.19929 3.32005L7.38929 2.51005C7.0688 2.18627 6.68719 1.92938 6.26661 1.75428C5.84603 1.57918 5.39486 1.48937 4.93929 1.49005Z" fill="black"/>
</svg>
