<svg width="12" height="18" viewBox="0 0 12 18" fill="none" xmlns="http://www.w3.org/2000/svg">
<path d="M9.75 0H1.75C0.79 0 0 0.79 0 1.75V15.75C0 16.71 0.79 17.5 1.75 17.5H9.75C10.71 17.5 11.5 16.71 11.5 15.75V1.75C11.5 0.79 10.71 0 9.75 0ZM10 15.75C10 15.89 9.89 16 9.75 16H1.75C1.61 16 1.5 15.89 1.5 15.75V1.75C1.5 1.61 1.61 1.5 1.75 1.5H9.75C9.89 1.5 10 1.61 10 1.75V15.75ZM6.75 12.75C6.75 13.3 6.3 13.75 5.75 13.75C5.2 13.75 4.75 13.3 4.75 12.75C4.75 12.2 5.2 11.75 5.75 11.75C6.3 11.75 6.75 12.2 6.75 12.75Z" fill="black"/>
</svg>
