<svg width="18" height="18" viewBox="0 0 18 18" fill="none" xmlns="http://www.w3.org/2000/svg">
<path d="M14.25 10.9965C13.7377 10.9984 13.2331 11.1217 12.7776 11.3564C12.3222 11.5911 11.9289 11.9304 11.63 12.3465L6.34 9.74655C6.4431 9.4231 6.49704 9.08601 6.5 8.74655C6.49704 8.40708 6.4431 8.06999 6.34 7.74655L11.63 5.14655C12.0862 5.7654 12.7482 6.20125 13.4969 6.37573C14.2457 6.55021 15.0321 6.45189 15.7149 6.09843C16.3977 5.74497 16.932 5.15957 17.2217 4.44745C17.5115 3.73532 17.5378 2.94319 17.2958 2.21343C17.0538 1.48368 16.5595 0.864165 15.9017 0.466256C15.2438 0.0683472 14.4656 -0.0818598 13.7069 0.0426356C12.9482 0.167131 12.2589 0.558164 11.7627 1.14544C11.2665 1.73272 10.9961 2.47773 11 3.24655C11.0024 3.41433 11.0191 3.58161 11.05 3.74655L5.58 6.49655C5.28061 6.17945 4.91938 5.9271 4.51862 5.75511C4.11787 5.58311 3.6861 5.49511 3.25 5.49655C2.38805 5.49655 1.5614 5.83896 0.951903 6.44845C0.34241 7.05794 0 7.88459 0 8.74655C0 9.6085 0.34241 10.4351 0.951903 11.0446C1.5614 11.6541 2.38805 11.9965 3.25 11.9965C3.6861 11.998 4.11787 11.91 4.51862 11.738C4.91938 11.566 5.28061 11.3136 5.58 10.9965L11.05 13.7465C11.0185 13.9148 11.0018 14.0854 11 14.2565C11 14.8993 11.1906 15.5277 11.5477 16.0621C11.9048 16.5966 12.4124 17.0132 13.0063 17.2592C13.6001 17.5051 14.2536 17.5695 14.884 17.4441C15.5145 17.3187 16.0936 17.0092 16.5481 16.5546C17.0026 16.1001 17.3121 15.521 17.4376 14.8906C17.563 14.2602 17.4986 13.6067 17.2526 13.0128C17.0066 12.419 16.5901 11.9114 16.0556 11.5543C15.5211 11.1972 14.8928 11.0065 14.25 11.0065V10.9965ZM14.25 1.49655C14.5961 1.49655 14.9345 1.59918 15.2222 1.79147C15.51 1.98377 15.7343 2.25708 15.8668 2.57685C15.9992 2.89662 16.0339 3.24849 15.9664 3.58795C15.8988 3.92742 15.7322 4.23924 15.4874 4.48398C15.2427 4.72872 14.9309 4.8954 14.5914 4.96292C14.2519 5.03044 13.9001 4.99579 13.5803 4.86333C13.2605 4.73088 12.9872 4.50658 12.7949 4.21879C12.6026 3.93101 12.5 3.59266 12.5 3.24655C12.5026 2.78323 12.6878 2.33963 13.0155 2.01201C13.3431 1.68439 13.7867 1.49917 14.25 1.49655ZM3.25 10.4965C2.90388 10.4965 2.56554 10.3939 2.27775 10.2016C1.98997 10.0093 1.76566 9.73601 1.63321 9.41624C1.50076 9.09647 1.4661 8.74461 1.53363 8.40514C1.60115 8.06567 1.76782 7.75385 2.01256 7.50911C2.25731 7.26437 2.56912 7.0977 2.90859 7.03017C3.24806 6.96265 3.59993 6.9973 3.9197 7.12976C4.23947 7.26221 4.51278 7.48651 4.70507 7.7743C4.89736 8.06208 5 8.40043 5 8.74655C4.99738 9.20986 4.81216 9.65346 4.48454 9.98108C4.15691 10.3087 3.71332 10.4939 3.25 10.4965ZM14.25 15.9965C13.9039 15.9965 13.5655 15.8939 13.2778 15.7016C12.99 15.5093 12.7657 15.236 12.6332 14.9162C12.5008 14.5965 12.4661 14.2446 12.5336 13.9051C12.6011 13.5657 12.7678 13.2539 13.0126 13.0091C13.2573 12.7644 13.5691 12.5977 13.9086 12.5302C14.2481 12.4626 14.5999 12.4973 14.9197 12.6298C15.2395 12.7622 15.5128 12.9865 15.7051 13.2743C15.8974 13.5621 16 13.9004 16 14.2465C15.9974 14.7099 15.8122 15.1535 15.4845 15.4811C15.1569 15.8087 14.7133 15.9939 14.25 15.9965Z" fill="black"/>
</svg>
