<svg width="18" height="18" viewBox="0 0 18 18" fill="none" xmlns="http://www.w3.org/2000/svg">
<path d="M8.75613 17.3605C8.39168 17.3601 8.02763 17.3367 7.66612 17.2905C5.74095 17.0398 3.95271 16.1595 2.57991 14.7867C1.20711 13.414 0.326818 11.6257 0.076125 9.70054C-0.213403 7.52466 0.329301 5.31969 1.59566 3.52676C2.86203 1.73382 4.75866 0.485147 6.90612 0.0305354C7.14156 -0.0229252 7.38752 -0.0059184 7.61335 0.0794363C7.83919 0.164791 8.03491 0.314719 8.17613 0.510535C8.32083 0.713275 8.40273 0.954092 8.41162 1.20302C8.42051 1.45194 8.356 1.69799 8.22613 1.91054C7.61583 2.95771 7.38288 4.18243 7.56612 5.38054C7.73591 6.48135 8.25205 7.49942 9.03965 8.28701C9.82724 9.07461 10.8453 9.59075 11.9461 9.76054C13.1456 9.95002 14.3735 9.71293 15.4161 9.09054C15.6306 8.96353 15.8777 8.90244 16.1267 8.91489C16.3756 8.92734 16.6154 9.01277 16.8161 9.16054C17.0121 9.29923 17.1624 9.49311 17.2479 9.71748C17.3334 9.94186 17.3502 10.1866 17.2961 10.4205C16.8905 12.3843 15.8189 14.1477 14.2628 15.4123C12.7066 16.6769 10.7613 17.3651 8.75613 17.3605ZM6.66612 1.70054C5.45928 2.05519 4.36548 2.71774 3.4922 3.62308C2.61892 4.52842 1.99621 5.64538 1.68527 6.86422C1.37432 8.08306 1.38585 9.36183 1.7187 10.5749C2.05155 11.7879 2.69429 12.8935 3.58374 13.7829C4.47319 14.6724 5.57876 15.3151 6.7918 15.648C8.00483 15.9808 9.2836 15.9923 10.5024 15.6814C11.7213 15.3705 12.8382 14.7477 13.7436 13.8745C14.6489 13.0012 15.3115 11.9074 15.6661 10.7005C14.7194 11.1621 13.6776 11.3954 12.6245 11.3816C11.5713 11.3678 10.536 11.1074 9.60162 10.6213C8.66726 10.1352 7.85983 9.4368 7.24411 8.58225C6.62839 7.7277 6.22152 6.74074 6.05613 5.70054C5.84564 4.33619 6.05854 2.94012 6.66612 1.70054Z" fill="black"/>
</svg>
