<svg width="20" height="20" viewBox="0 0 20 20" fill="none" xmlns="http://www.w3.org/2000/svg">
<path d="M10 15.75C8.86276 15.75 7.75106 15.4128 6.80547 14.781C5.85989 14.1491 5.1229 13.2511 4.6877 12.2004C4.25249 11.1498 4.13862 9.99362 4.36049 8.87823C4.58235 7.76284 5.12999 6.73829 5.93414 5.93414C6.73829 5.12999 7.76284 4.58235 8.87823 4.36049C9.99362 4.13862 11.1498 4.25249 12.2004 4.6877C13.2511 5.1229 14.1491 5.85989 14.781 6.80547C15.4128 7.75106 15.75 8.86276 15.75 10C15.7474 11.5242 15.1407 12.9852 14.0629 14.0629C12.9852 15.1407 11.5242 15.7474 10 15.75ZM10 5.75C9.15943 5.75 8.33774 5.99926 7.63883 6.46626C6.93992 6.93325 6.39519 7.59701 6.07351 8.3736C5.75184 9.15018 5.66768 10.0047 5.83167 10.8291C5.99565 11.6536 6.40043 12.4108 6.9948 13.0052C7.58917 13.5996 8.34645 14.0044 9.17087 14.1683C9.99529 14.3323 10.8498 14.2482 11.6264 13.9265C12.403 13.6048 13.0668 13.0601 13.5337 12.3612C14.0007 11.6623 14.25 10.8406 14.25 10C14.2474 8.87364 13.7987 7.79417 13.0023 6.99772C12.2058 6.20126 11.1264 5.75264 10 5.75Z" fill="black"/>
<path d="M10 3C9.80189 2.99741 9.61263 2.91756 9.47253 2.77747C9.33244 2.63737 9.25259 2.44811 9.25 2.25V0.75C9.25 0.551088 9.32902 0.360322 9.46967 0.21967C9.61032 0.0790175 9.80109 0 10 0C10.1989 0 10.3897 0.0790175 10.5303 0.21967C10.671 0.360322 10.75 0.551088 10.75 0.75V2.25C10.7474 2.44811 10.6676 2.63737 10.5275 2.77747C10.3874 2.91756 10.1981 2.99741 10 3Z" fill="black"/>
<path d="M10 20C9.80189 19.9974 9.61263 19.9176 9.47253 19.7775C9.33244 19.6374 9.25259 19.4481 9.25 19.25V17.75C9.25 17.5511 9.32902 17.3603 9.46967 17.2197C9.61032 17.079 9.80109 17 10 17C10.1989 17 10.3897 17.079 10.5303 17.2197C10.671 17.3603 10.75 17.5511 10.75 17.75V19.25C10.7474 19.4481 10.6676 19.6374 10.5275 19.7775C10.3874 19.9176 10.1981 19.9974 10 20Z" fill="black"/>
<path d="M19.25 10.75H17.75C17.5511 10.75 17.3603 10.671 17.2197 10.5303C17.079 10.3897 17 10.1989 17 10C17 9.80109 17.079 9.61032 17.2197 9.46967C17.3603 9.32902 17.5511 9.25 17.75 9.25H19.25C19.4489 9.25 19.6397 9.32902 19.7803 9.46967C19.921 9.61032 20 9.80109 20 10C20 10.1989 19.921 10.3897 19.7803 10.5303C19.6397 10.671 19.4489 10.75 19.25 10.75Z" fill="black"/>
<path d="M2.25 10.75H0.75C0.551088 10.75 0.360322 10.671 0.21967 10.5303C0.0790175 10.3897 0 10.1989 0 10C0 9.80109 0.0790175 9.61032 0.21967 9.46967C0.360322 9.32902 0.551088 9.25 0.75 9.25H2.25C2.44891 9.25 2.63968 9.32902 2.78033 9.46967C2.92098 9.61032 3 9.80109 3 10C3 10.1989 2.92098 10.3897 2.78033 10.5303C2.63968 10.671 2.44891 10.75 2.25 10.75Z" fill="black"/>
<path d="M4.50001 5.24995C4.30707 5.2352 4.12758 5.14545 4.00001 4.99995L2.91001 3.99995C2.83844 3.92838 2.78167 3.84341 2.74293 3.7499C2.7042 3.65639 2.68427 3.55617 2.68427 3.45495C2.68427 3.35373 2.7042 3.25351 2.74293 3.16C2.78167 3.06649 2.83844 2.98152 2.91001 2.90995C2.98158 2.83838 3.06655 2.78161 3.16006 2.74287C3.25357 2.70414 3.3538 2.6842 3.45501 2.6842C3.55623 2.6842 3.65645 2.70414 3.74996 2.74287C3.84347 2.78161 3.92844 2.83838 4.00001 2.90995L5.00001 3.99995C5.123 4.13746 5.19099 4.31547 5.19099 4.49995C5.19099 4.68443 5.123 4.86244 5.00001 4.99995C4.87244 5.14545 4.69295 5.2352 4.50001 5.24995Z" fill="black"/>
<path d="M16.56 17.31C16.4614 17.3104 16.3638 17.2912 16.2728 17.2534C16.1818 17.2157 16.0992 17.1601 16.03 17.09L15 16C14.9331 15.86 14.9113 15.7028 14.9376 15.5499C14.9638 15.3971 15.0368 15.2561 15.1464 15.1464C15.2561 15.0368 15.3971 14.9638 15.5499 14.9376C15.7028 14.9113 15.86 14.9331 16 15L17.09 16C17.2304 16.1406 17.3093 16.3312 17.3093 16.53C17.3093 16.7287 17.2304 16.9194 17.09 17.06C17.0233 17.1355 16.9419 17.1967 16.8508 17.2397C16.7596 17.2827 16.6607 17.3066 16.56 17.31Z" fill="black"/>
<path d="M15.5 5.24995C15.3071 5.2352 15.1276 5.14545 15 4.99995C14.877 4.86244 14.809 4.68443 14.809 4.49995C14.809 4.31547 14.877 4.13746 15 3.99995L16 2.90995C16.1445 2.76541 16.3406 2.6842 16.545 2.6842C16.7494 2.6842 16.9455 2.76541 17.09 2.90995C17.2345 3.05449 17.3158 3.25054 17.3158 3.45495C17.3158 3.65936 17.2345 3.85541 17.09 3.99995L16 4.99995C15.8724 5.14545 15.6929 5.2352 15.5 5.24995Z" fill="black"/>
<path d="M3.44001 17.31C3.34147 17.3104 3.24383 17.2912 3.15282 17.2534C3.06181 17.2157 2.97926 17.1601 2.91001 17.09C2.76956 16.9494 2.69067 16.7587 2.69067 16.56C2.69067 16.3612 2.76956 16.1706 2.91001 16.03L4.00001 15C4.13997 14.9331 4.2972 14.9113 4.45006 14.9376C4.60293 14.9638 4.7439 15.0368 4.85357 15.1464C4.96324 15.2561 5.03621 15.3971 5.06244 15.5499C5.08866 15.7028 5.06685 15.86 5.00001 16L4.00001 17.09C3.92728 17.1638 3.83985 17.2216 3.74338 17.2595C3.64691 17.2974 3.54356 17.3146 3.44001 17.31Z" fill="black"/>
</svg>
