<svg width="21" height="16" viewBox="0 0 21 16" fill="none" xmlns="http://www.w3.org/2000/svg">
<path fill-rule="evenodd" clip-rule="evenodd" d="M10.3843 2C7.67829 2 5.39071 3.7913 4.64263 6.25278L6.43704 5.35557L7.33147 7.14443L3.13312 9.2436L0 5.58829L1.51851 4.28671L2.72243 5.69128C3.71325 2.39855 6.76865 0 10.3843 0C12.5931 0 14.5945 0.896526 16.0411 2.34315L14.6269 3.75736C13.54 2.67048 12.0414 2 10.3843 2Z" fill="black"/>
<path fill-rule="evenodd" clip-rule="evenodd" d="M10.3843 14C13.0902 14 15.3778 12.2087 16.1259 9.74722L14.3315 10.6444L13.437 8.85557L17.6354 6.7564L20.7685 10.4117L19.25 11.7133L18.0461 10.3087C17.0553 13.6015 13.9999 16 10.3843 16C8.1754 16 6.17402 15.1035 4.7274 13.6569L6.14161 12.2426C7.2285 13.3295 8.72713 14 10.3843 14Z" fill="black"/>
</svg>
