<svg width="18" height="17" viewBox="0 0 18 17" fill="none" xmlns="http://www.w3.org/2000/svg">
<path d="M0.762933 13.7913C0.641862 13.7934 0.522086 13.7662 0.413841 13.7119C0.305596 13.6576 0.212102 13.578 0.141349 13.4797C0.0705965 13.3814 0.0246891 13.2675 0.00755046 13.1476C-0.00958814 13.0277 0.00255177 12.9055 0.0429327 12.7913L1.29293 8.67135C1.0373 7.96906 0.902068 7.22866 0.892933 6.48135C0.89096 5.61875 1.06448 4.76477 1.40293 3.97135C1.81322 2.99418 2.45692 2.13257 3.27762 1.46201C4.09831 0.79145 5.07095 0.332418 6.11028 0.125142C7.14962 -0.0821333 8.22394 -0.0313251 9.23907 0.273114C10.2542 0.577553 11.1792 1.12633 11.9329 1.87135C12.5178 2.46558 12.9859 3.16435 13.3129 3.93135C13.6452 4.72296 13.8163 5.57285 13.8163 6.43135C13.8163 7.28985 13.6452 8.13974 13.3129 8.93135C12.9859 9.69835 12.5178 10.3971 11.9329 10.9913C11.0561 11.8667 9.94662 12.4723 8.73609 12.7364C7.52556 13.0004 6.2647 12.9119 5.10293 12.4813L0.982933 13.7613C0.911274 13.7812 0.837279 13.7912 0.762933 13.7913ZM7.35293 1.48135C6.68984 1.47942 6.03325 1.6121 5.42293 1.87135C4.2406 2.37032 3.29538 3.30479 2.78293 4.48135C2.52578 5.09405 2.39333 5.75187 2.39333 6.41635C2.39333 7.08083 2.52578 7.73865 2.78293 8.35135C2.84251 8.51613 2.84251 8.69657 2.78293 8.86135L1.86293 11.8613L4.86293 10.9413C5.02771 10.8818 5.20815 10.8818 5.37293 10.9413C6.5872 11.4456 7.95123 11.4513 9.16967 10.9572C10.3881 10.4631 11.3629 9.50895 11.8829 8.30135C12.1756 7.55335 12.2837 6.74587 12.1981 5.94725C12.1126 5.14862 11.8359 4.38235 11.3915 3.7133C10.9471 3.04425 10.3481 2.4921 9.64508 2.10359C8.9421 1.71509 8.15587 1.50165 7.35293 1.48135Z" fill="black"/>
<path d="M16.2629 16.9814C16.1899 16.9911 16.1159 16.9911 16.0429 16.9814L11.9229 15.7314C10.3751 16.3158 8.66136 16.2802 7.13919 15.6318C5.61701 14.9834 4.40392 13.7724 3.75292 12.2514C3.70842 12.1614 3.68297 12.0632 3.67815 11.9629C3.67333 11.8626 3.68925 11.7624 3.72492 11.6685C3.76058 11.5747 3.81522 11.4892 3.88542 11.4174C3.95562 11.3456 4.03988 11.2891 4.13292 11.2514C4.22339 11.2098 4.32125 11.1866 4.42077 11.1833C4.5203 11.1799 4.61949 11.1964 4.71258 11.2317C4.80566 11.2671 4.89077 11.3207 4.96294 11.3893C5.03511 11.4579 5.09289 11.5402 5.13292 11.6314C5.37061 12.1979 5.70947 12.7163 6.13292 13.1614C6.83408 13.8548 7.72465 14.3255 8.69261 14.5141C9.66057 14.7027 10.6627 14.6009 11.5729 14.2214C11.7377 14.1618 11.9181 14.1618 12.0829 14.2214L15.0829 15.1414L14.1629 12.1414C14.1033 11.9766 14.1033 11.7962 14.1629 11.6314C14.4222 11.0211 14.5548 10.3645 14.5529 9.70138C14.5553 9.04951 14.4283 8.40365 14.1795 7.80116C13.9306 7.19867 13.5647 6.65152 13.1029 6.19138C12.9006 5.93573 12.6764 5.69817 12.4329 5.48138C12.3455 5.42892 12.2697 5.35919 12.2101 5.27643C12.1505 5.19368 12.1084 5.09965 12.0864 5.00009C12.0644 4.90053 12.063 4.79753 12.0821 4.69738C12.1013 4.59723 12.1407 4.50204 12.1978 4.41762C12.255 4.3332 12.3288 4.26133 12.4147 4.2064C12.5006 4.15147 12.5968 4.11463 12.6975 4.09814C12.7981 4.08164 12.901 4.08584 12.9999 4.11047C13.0989 4.13509 13.1918 4.17964 13.2729 4.24138C13.6306 4.47229 13.9655 4.73683 14.2729 5.03138C14.861 5.62298 15.3296 6.32241 15.6529 7.09138C15.9922 7.88807 16.1657 8.74548 16.1629 9.61138C16.1608 10.3789 16.0255 11.1402 15.7629 11.8614L17.0129 15.9814C17.0533 16.0955 17.0654 16.2178 17.0483 16.3376C17.0312 16.4575 16.9853 16.5715 16.9145 16.6697C16.8437 16.768 16.7503 16.8477 16.642 16.9019C16.5338 16.9562 16.414 16.9835 16.2929 16.9814H16.2629Z" fill="black"/>
</svg>
